<svg width="16" height="19" viewBox="0 0 16 19" fill="none" xmlns="http://www.w3.org/2000/svg">
<path d="M13.7565 1.10699e-09H4.80982C4.21483 1.10699e-09 3.64421 0.22746 3.22349 0.632341C2.80276 1.03722 2.56641 1.58636 2.56641 2.15895V13.9468C2.56641 14.5194 2.80276 15.0685 3.22349 15.4734C3.64421 15.8783 4.21483 16.1057 4.80982 16.1057H13.7565C14.3515 16.1057 14.9221 15.8783 15.3429 15.4734C15.7636 15.0685 15.9999 14.5194 15.9999 13.9468V2.14167C15.9952 1.57208 15.7568 1.02737 15.3366 0.626222C14.9163 0.225069 14.3484 -1.82266e-05 13.7565 1.10699e-09ZM14.6539 13.9468C14.6539 14.1758 14.5594 14.3955 14.3911 14.5574C14.2228 14.7194 13.9945 14.8104 13.7565 14.8104H4.80982C4.57182 14.8104 4.34357 14.7194 4.17528 14.5574C4.007 14.3955 3.91245 14.1758 3.91245 13.9468V2.14167C3.91245 1.91264 4.007 1.69298 4.17528 1.53103C4.34357 1.36908 4.57182 1.2781 4.80982 1.2781H13.7565C13.9945 1.2781 14.2228 1.36908 14.3911 1.53103C14.5594 1.69298 14.6539 1.91264 14.6539 2.14167V13.9468Z" fill="#00B4D8"/>
<path d="M11.1677 17.7003H2.24341C2.00541 17.7003 1.77717 17.6094 1.60888 17.4474C1.44059 17.2854 1.34605 17.0658 1.34605 16.8368V5.06187C1.34605 4.89009 1.27514 4.72535 1.14892 4.60389C1.02271 4.48242 0.85152 4.41418 0.673023 4.41418C0.494526 4.41418 0.32334 4.48242 0.197124 4.60389C0.0709075 4.72535 0 4.89009 0 5.06187V16.8411C0 17.4137 0.236359 17.9628 0.65708 18.3677C1.0778 18.7726 1.64842 19 2.24341 19H11.1677C11.3468 19 11.5185 18.9316 11.6452 18.8097C11.7718 18.6878 11.843 18.5225 11.843 18.3502C11.843 18.1778 11.7718 18.0125 11.6452 17.8907C11.5185 17.7688 11.3468 17.7003 11.1677 17.7003Z" fill="#00B4D8"/>
</svg>
