<svg width="17" height="22" viewBox="0 0 17 22" fill="none" xmlns="http://www.w3.org/2000/svg">
<g clip-path="url(#clip0_4_108)">
<path d="M15.9359 7.33214C15.6541 7.33305 15.3842 7.43004 15.1849 7.60197C14.9856 7.77389 14.8732 8.00682 14.8722 8.24996V10.0821C14.8722 11.5408 14.2006 12.9398 13.0051 13.9712C11.8097 15.0027 10.1883 15.5821 8.49768 15.5821C6.80706 15.5821 5.18568 15.0027 3.99023 13.9712C2.79478 12.9398 2.12318 11.5408 2.12318 10.0821V8.24996C2.13206 8.12493 2.11119 7.99967 2.06184 7.88186C2.0125 7.76406 1.93574 7.65622 1.83627 7.56498C1.73681 7.47375 1.61675 7.40104 1.48349 7.35134C1.35024 7.30164 1.2066 7.276 1.06143 7.276C0.916252 7.276 0.772615 7.30164 0.639358 7.35134C0.506101 7.40104 0.386044 7.47375 0.28658 7.56498C0.187116 7.65622 0.11035 7.76406 0.061008 7.88186C0.0116659 7.99967 -0.00920755 8.12493 -0.000327228 8.24996V10.0821C0.00268924 11.8672 0.759621 13.5901 2.12877 14.9283C3.49792 16.2666 5.38541 17.1284 7.43792 17.3525V21.0821C7.42904 21.2072 7.44991 21.3324 7.49926 21.4502C7.5486 21.568 7.62536 21.6759 7.72483 21.7671C7.82429 21.8584 7.94435 21.9311 8.07761 21.9808C8.21086 22.0305 8.3545 22.0561 8.49967 22.0561C8.64485 22.0561 8.78848 22.0305 8.92174 21.9808C9.055 21.9311 9.17505 21.8584 9.27452 21.7671C9.37398 21.6759 9.45075 21.568 9.50009 21.4502C9.54943 21.3324 9.57031 21.2072 9.56143 21.0821V17.3525C11.6139 17.1284 13.5014 16.2666 14.8706 14.9283C16.2397 13.5901 16.9967 11.8672 16.9997 10.0821V8.24996C16.9986 8.00682 16.8862 7.77389 16.6869 7.60197C16.4877 7.43004 16.2177 7.33305 15.9359 7.33214Z" fill="#000814"/>
<path d="M8.49803 13.75C9.62514 13.7491 10.7058 13.3623 11.5028 12.6747C12.2998 11.987 12.748 11.0546 12.749 10.0822V3.66778C12.7664 3.1769 12.6694 2.68799 12.4637 2.23007C12.258 1.77214 11.9479 1.35452 11.5516 1.00198C11.1553 0.649431 10.681 0.369141 10.1568 0.177733C9.63263 -0.0136755 9.06922 -0.112305 8.50002 -0.112305C7.93082 -0.112305 7.36741 -0.0136755 6.84322 0.177733C6.31903 0.369141 5.84473 0.649431 5.44845 1.00198C5.05217 1.35452 4.74199 1.77214 4.5363 2.23007C4.3306 2.68799 4.23359 3.1769 4.25102 3.66778V10.0822C4.25207 11.054 4.69973 11.9859 5.49586 12.6735C6.29199 13.361 7.37161 13.7481 8.49803 13.75ZM6.37452 3.66778C6.3621 3.42027 6.40787 3.17315 6.50909 2.94131C6.6103 2.70946 6.76486 2.4977 6.96346 2.31877C7.16205 2.13984 7.40057 1.99744 7.66465 1.90017C7.92872 1.80289 8.21288 1.75274 8.50002 1.75274C8.78715 1.75274 9.07132 1.80289 9.33539 1.90017C9.59947 1.99744 9.83799 2.13984 10.0366 2.31877C10.2352 2.4977 10.3897 2.70946 10.491 2.94131C10.5922 3.17315 10.6379 3.42027 10.6255 3.66778V10.0822C10.6379 10.3297 10.5922 10.5768 10.491 10.8086C10.3897 11.0405 10.2352 11.2522 10.0366 11.4312C9.83799 11.6101 9.59947 11.7525 9.33539 11.8498C9.07132 11.947 8.78715 11.9972 8.50002 11.9972C8.21288 11.9972 7.92872 11.947 7.66465 11.8498C7.40057 11.7525 7.16205 11.6101 6.96346 11.4312C6.76486 11.2522 6.6103 11.0405 6.50909 10.8086C6.40787 10.5768 6.3621 10.3297 6.37452 10.0822V3.66778Z" fill="#000814"/>
</g>
<defs>
<clipPath id="clip0_4_108">
<rect width="17" height="22" fill="white"/>
</clipPath>
</defs>
</svg>
